<?xml version="1.0" encoding="utf-8"?>
<!-- Generator: Adobe Illustrator 22.1.0, SVG Export Plug-In . SVG Version: 6.00 Build 0)  -->
<svg version="1.1" id="Layer_1" xmlns="http://www.w3.org/2000/svg" xmlns:xlink="http://www.w3.org/1999/xlink" x="0px" y="0px"
	 viewBox="0 0 600 600" style="enable-background:new 0 0 600 600;" xml:space="preserve">
<style type="text/css">
	.st0{fill:#CBC0DB;}
	.st1{fill:#CDA152;}
	.st2{fill:#6097CE;}
	.st3{clip-path:url(#SVGID_2_);}
	.st4{fill:url(#SVGID_3_);}
	.st5{fill:#BFE2F3;}
	.st6{fill:#4994CD;}
	.st7{clip-path:url(#SVGID_5_);}
	.st8{fill:url(#SVGID_6_);}
	.st9{fill:#926A24;}
	.st10{fill:#77787B;}
	.st11{fill:#404041;}
	.st12{fill:#9FA1A4;}
</style>
<title>Asset 1</title>
<g id="Layer_2_1_">
	<g id="grid">
		<path class="st0" d="M472.5,521.9L472.5,521.9z"/>
		<path class="st0" d="M472.5,521.9L472.5,521.9z"/>
		<path class="st0" d="M334.9,578.9L334.9,578.9z"/>
		<path class="st0" d="M334.9,578.9L334.9,578.9z"/>
		<path class="st0" d="M334.9,578.9L334.9,578.9z"/>
		<path class="st0" d="M334.9,578.9L334.9,578.9z"/>
		<path class="st1" d="M240.6,443.5c41.2,40.3,93.7,67.1,150.5,76.7c33.5-47,51.7-103.1,52.3-160.8
			c-53.3,54.3-126.3,84.6-202.4,84.1"/>
		<polygon class="st2" points="472.5,522 472.5,522 472.6,521.8 		"/>
		<g>
			<defs>
				<path id="SVGID_1_" d="M78.3,472.6c53.1,68.1,134.5,108.1,220.9,108.5h2c11.3,0,22.5-0.8,33.7-2.1
					c21.5-16.8,40.4-36.6,56.2-58.8c-56.9-9.6-109.4-36.4-150.5-76.8c-57.7-0.5-113.8-18.7-160.8-52.2c-4.6,26.9-5.1,54.3-1.7,81.4"
					/>
			</defs>
			<clipPath id="SVGID_2_">
				<use xlink:href="#SVGID_1_"  style="overflow:visible;"/>
			</clipPath>
			<g class="st3">
				
					<linearGradient id="SVGID_3_" gradientUnits="userSpaceOnUse" x1="-2270.9971" y1="-5605.9692" x2="-2258.5134" y2="-5605.9692" gradientTransform="matrix(25.35 0 0 -25.35 57605.25 -141625.2031)">
					<stop  offset="0" style="stop-color:#C79242"/>
					<stop  offset="0.96" style="stop-color:#8D6520"/>
					<stop  offset="1" style="stop-color:#8D6520"/>
				</linearGradient>
				<rect x="74.8" y="391.2" class="st4" width="316.5" height="189.9"/>
			</g>
		</g>
		<path class="st5" d="M21.1,335L21.1,335z"/>
		<path class="st0" d="M21.1,335L21.1,335z"/>
		<path class="st5" d="M21.1,335L21.1,335z"/>
		<path class="st0" d="M21.1,335L21.1,335z"/>
		<path class="st5" d="M21.1,335L21.1,335z"/>
		<path class="st5" d="M578.9,265.2"/>
		<path class="st0" d="M578.9,265.2"/>
		<path class="st5" d="M578.9,265.2"/>
		<path class="st0" d="M578.9,265.2"/>
		<path class="st5" d="M578.9,265.2"/>
		<path class="st1" d="M79.9,391.1c-22.2-15.8-42-34.7-58.8-56.2c5,26.9,4.8,54.8-1.6,81.5c22.2,15.8,41.9,34.7,58.7,56.2l0,0l0,0
			c-3.4-27-2.9-54.5,1.7-81.4"/>
		<path class="st1" d="M580.6,183.7c-22.2-15.8-42-34.7-58.8-56.2c3.4,27.1,2.9,54.5-1.7,81.4c22.2,15.8,41.9,34.7,58.7,56.2l0,0
			l0,0C575.4,238,576,210.6,580.6,183.7"/>
		<path class="st1" d="M416.2,580.6c15.8-22.2,34.7-42,56.2-58.8c-27.1,3.4-54.5,2.9-81.4-1.7c-15.8,22.2-34.7,41.9-56.2,58.7l0,0
			c27-3.3,54.3-2.7,81.2,1.8"/>
		<polygon class="st2" points="521.9,127.6 521.9,127.6 521.8,127.5 521.9,127.6 521.8,127.5 521.9,127.6 521.8,127.5 521.9,127.6 
			521.8,127.5 		"/>
		<path class="st6" d="M521.9,127.6L521.9,127.6z"/>
		<path class="st6" d="M521.9,127.6L521.9,127.6z"/>
		<path class="st6" d="M521.9,127.6L521.9,127.6z"/>
		<g>
			<defs>
				<path id="SVGID_4_" d="M443.5,359.3c-0.6,57.7-18.8,113.8-52.3,160.8c26.9,4.6,54.3,5.1,81.4,1.7
					c78.2-60.8,118.6-158.3,106.3-256.7c-16.8-21.5-36.6-40.4-58.8-56.2c-9.6,56.8-36.3,109.4-76.7,150.5"/>
			</defs>
			<clipPath id="SVGID_5_">
				<use xlink:href="#SVGID_4_"  style="overflow:visible;"/>
			</clipPath>
			<g class="st7">
				
					<linearGradient id="SVGID_6_" gradientUnits="userSpaceOnUse" x1="-2157.0874" y1="-5891.6289" x2="-2144.6086" y2="-5891.6289" gradientTransform="matrix(1.552852e-15 -25.36 -25.36 -1.552852e-15 -148920.5312 -54163.043)">
					<stop  offset="0" style="stop-color:#8D6520"/>
					<stop  offset="4.000000e-02" style="stop-color:#8D6520"/>
					<stop  offset="1" style="stop-color:#C79242"/>
				</linearGradient>
				<rect x="391.2" y="208.7" class="st8" width="200" height="316.5"/>
			</g>
		</g>
		<path class="st9" d="M156.6,240.7c-40.3,41.2-67.1,93.7-76.7,150.5c47,33.4,103.1,51.7,160.8,52.3
			c-54.2-53.4-84.5-126.3-84.1-202.4"/>
		<path class="st10" d="M156.6,240.7c53.3-54.2,126.3-84.5,202.4-84.1c-41.2-40.3-93.8-67.1-150.6-76.7
			c-33.5,47-51.7,103.1-52.3,160.8"/>
		<path class="st11" d="M156.6,240.7c0.6-57.7,18.8-113.8,52.3-160.8c-26.9-4.6-54.3-5.1-81.4-1.7C49.2,139,8.8,236.5,21.1,334.9
			c16.8,21.5,36.6,40.4,58.8,56.2c9.6-56.8,36.3-109.4,76.7-150.5"/>
		<path class="st9" d="M443.4,359.4c40.3-41.2,67.1-93.7,76.7-150.5c-47-33.5-103.1-51.7-160.8-52.3
			c54.3,53.3,84.7,126.3,84.1,202.4"/>
		<path class="st11" d="M359.5,156.6c57.6,0.6,113.7,18.8,160.6,52.3c4.6-26.9,5.1-54.3,1.7-81.4C461,49.2,363.5,8.8,265.1,21.1
			c-21.5,16.8-40.4,36.6-56.2,58.8c56.9,9.6,109.4,36.4,150.6,76.7"/>
		<path class="st12" d="M208.8,79.9c15.8-22.2,34.7-42,56.2-58.8c-27.1,3.3-54.4,2.6-81.3-2.1C168,41.1,149,60.9,127.5,77.6l0,0
			c27-3.3,54.3-2.7,81.2,1.8"/>
	</g>
</g>
</svg>
